<svg width="24" height="21" viewBox="0 0 24 21" fill="none" xmlns="http://www.w3.org/2000/svg">
<path id="Vector" fill-rule="evenodd" clip-rule="evenodd" d="M19.3049 0.231738C19.9583 0.231738 20.5293 0.524433 20.9052 0.996955L23.3185 6.35539C23.4256 6.56774 23.4792 6.78009 23.4792 6.99243V10.1815C23.4792 11.071 22.9569 11.8401 22.2032 12.1978V19.7467C22.2032 20.0004 22.1024 20.2437 21.923 20.4231C21.7437 20.6024 21.5004 20.7032 21.2467 20.7032C20.993 20.7032 20.7497 20.6024 20.5703 20.4231C20.3909 20.2437 20.2902 20.0004 20.2902 19.7467V12.413H14.551V18.2478C14.551 19.6042 13.5524 20.7032 12.3195 20.7032H4.02929C2.79634 20.7032 1.79773 19.6032 1.79773 18.2488V12.1978C1.41601 12.017 1.09347 11.7315 0.867594 11.3745C0.641716 11.0176 0.521781 10.6039 0.521729 10.1815L0.521729 6.99243C0.521729 6.78009 0.575294 6.56774 0.680511 6.35539L3.08138 0.996955C3.27618 0.756807 3.52235 0.5634 3.80178 0.430971C4.0812 0.298541 4.38677 0.230459 4.69599 0.231738H19.3049ZM21.2467 10.5C21.4227 10.5 21.5652 10.3565 21.5652 10.1815V7.63043H18.2174V10.5H21.2467ZM20.9329 5.71739L19.3241 2.14574H4.69599C4.68451 2.14574 4.67303 2.14574 4.66347 2.14765L3.06321 5.71739H20.9329ZM12.9575 7.63043H16.3053V10.5H12.9565V7.63043H12.9575ZM11.0444 7.63043H7.69564V10.5H11.0435V7.63043H11.0444ZM5.78355 7.63043H2.43477V10.1815C2.43477 10.3575 2.57729 10.5 2.75329 10.5H5.7826L5.78355 7.63043ZM3.71077 12.4475H12.638V18.2488C12.638 18.5855 12.4524 18.7902 12.3195 18.7902H4.02929C3.89538 18.7902 3.71077 18.5855 3.71077 18.2488V12.4475Z" fill="white"/>
</svg>
