<svg width="25" height="24" viewBox="0 0 25 24" fill="none" xmlns="http://www.w3.org/2000/svg">
<path id="Vector" fill-rule="evenodd" clip-rule="evenodd" d="M14.2606 2.4L21.4606 8.44224H23.2203C23.4749 8.44224 23.7191 8.54338 23.8991 8.72341C24.0792 8.90345 24.1803 9.14763 24.1803 9.40224C24.1803 9.65684 24.0792 9.90102 23.8991 10.0811C23.7191 10.2611 23.4749 10.3622 23.2203 10.3622H23.1022L21.6699 21.2698C21.5355 22.2854 20.709 23.1619 19.4782 23.1619H5.20496C3.9752 23.1619 3.14672 22.2854 3.01328 21.2698L1.57808 10.3622H1.46C1.20539 10.3622 0.961212 10.2611 0.781177 10.0811C0.601143 9.90102 0.5 9.65684 0.5 9.40224C0.5 9.14763 0.601143 8.90345 0.781177 8.72341C0.961212 8.54338 1.20539 8.44224 1.46 8.44224H3.21968L10.4197 2.4C10.4197 1.89078 10.622 1.40242 10.982 1.04235C11.3421 0.682281 11.8305 0.479996 12.3397 0.479996C12.8489 0.479996 13.3373 0.682281 13.6973 1.04235C14.0574 1.40242 14.2606 1.89078 14.2606 2.4ZM12.3406 4.32C12.6795 4.32 12.9973 4.23264 13.2738 4.07808L18.4741 8.44224H6.20624L11.4075 4.07808C11.683 4.23168 12.0018 4.32 12.3406 4.32ZM3.5144 10.3622H21.165L19.7672 21.0192C19.7499 21.1469 19.6597 21.2419 19.4792 21.2419H5.20496C5.02448 21.2419 4.93328 21.1459 4.91696 21.0192L3.51536 10.3632L3.5144 10.3622ZM17.78 12.2822C17.5254 12.2822 17.2812 12.3834 17.1012 12.5634C16.9211 12.7434 16.82 12.9876 16.82 13.2422V19.0022C16.82 19.2568 16.9211 19.501 17.1012 19.6811C17.2812 19.8611 17.5254 19.9622 17.78 19.9622C18.0346 19.9622 18.2788 19.8611 18.4588 19.6811C18.6389 19.501 18.74 19.2568 18.74 19.0022V13.2422C18.74 12.9876 18.6389 12.7434 18.4588 12.5634C18.2788 12.3834 18.0346 12.2822 17.78 12.2822ZM13.1931 13.2422C13.1931 12.9876 13.2943 12.7434 13.4743 12.5634C13.6543 12.3834 13.8985 12.2822 14.1531 12.2822C14.4077 12.2822 14.6519 12.3834 14.8319 12.5634C15.012 12.7434 15.1131 12.9876 15.1131 13.2422V19.0022C15.1131 19.2568 15.012 19.501 14.8319 19.6811C14.6519 19.8611 14.4077 19.9622 14.1531 19.9622C13.8985 19.9622 13.6543 19.8611 13.4743 19.6811C13.2943 19.501 13.1931 19.2568 13.1931 19.0022V13.2422ZM10.5262 12.2822C10.2716 12.2822 10.0275 12.3834 9.84742 12.5634C9.66738 12.7434 9.56624 12.9876 9.56624 13.2422V19.0022C9.56624 19.2568 9.66738 19.501 9.84742 19.6811C10.0275 19.8611 10.2716 19.9622 10.5262 19.9622C10.7808 19.9622 11.025 19.8611 11.2051 19.6811C11.3851 19.501 11.4862 19.2568 11.4862 19.0022V13.2422C11.4862 12.9876 11.3851 12.7434 11.2051 12.5634C11.025 12.3834 10.7808 12.2822 10.5262 12.2822ZM5.93936 13.2422C5.93936 12.9876 6.0405 12.7434 6.22054 12.5634C6.40057 12.3834 6.64475 12.2822 6.89936 12.2822C7.15397 12.2822 7.39815 12.3834 7.57818 12.5634C7.75822 12.7434 7.85936 12.9876 7.85936 13.2422V19.0022C7.85936 19.2568 7.75822 19.501 7.57818 19.6811C7.39815 19.8611 7.15397 19.9622 6.89936 19.9622C6.64475 19.9622 6.40057 19.8611 6.22054 19.6811C6.0405 19.501 5.93936 19.2568 5.93936 19.0022V13.2422Z" fill="white"/>
</svg>
