<svg width="26" height="25" viewBox="0 0 26 25" fill="none" xmlns="http://www.w3.org/2000/svg">
<path id="Vector" fill-rule="evenodd" clip-rule="evenodd" d="M19.9733 0.73466C17.412 0.477327 14.7307 1.49466 13.0907 3.29466L13 3.39599L12.9093 3.29466C11.2693 1.49466 8.58933 0.477327 6.02533 0.73466C2.428 1.09466 0 3.78399 0 8.16666C0 11.908 4.12267 17.176 12.3467 24.2573C12.5296 24.4153 12.7636 24.5016 13.0052 24.5004C13.2469 24.4992 13.48 24.4105 13.6613 24.2507C21.8867 17.008 26 11.752 26 8.16666C26 3.78399 23.572 1.09333 19.9733 0.73466ZM12.9933 22.1707L12.5573 21.788C5.51333 15.5747 2 10.952 2 8.16666C2 4.81066 3.65067 2.98133 6.224 2.72399C8.612 2.48533 11.1627 3.72799 12.1053 5.61333C12.1883 5.77956 12.316 5.91938 12.474 6.0171C12.6321 6.11483 12.8142 6.16659 13 6.16659C13.1858 6.16659 13.3679 6.11483 13.526 6.0171C13.684 5.91938 13.8117 5.77956 13.8947 5.61333C14.8373 3.72799 17.388 2.48533 19.7747 2.72399C22.3493 2.98133 24 4.81066 24 8.16666C24 10.8053 20.476 15.4333 13.4293 21.78L12.9933 22.1707Z" fill="white"/>
</svg>
