<svg width="153" height="31" viewBox="0 0 153 31" fill="none" xmlns="http://www.w3.org/2000/svg">
<path id="Vector" d="M7.62484 14.3241C8.34966 14.2354 8.86628 14.1198 9.17857 13.981C9.73761 13.7458 10.0191 13.3757 10.0191 12.8745C10.0191 12.2653 9.80315 11.8451 9.3752 11.6137C8.94725 11.3824 8.31496 11.2668 7.48604 11.2668C6.55303 11.2668 5.89375 11.4942 5.50821 11.9492C5.23062 12.2846 5.04556 12.7395 4.95303 13.314H1.20171C1.28267 12.0108 1.64893 10.9429 2.29664 10.1063C3.3299 8.79543 5.10339 8.14001 7.61327 8.14001C9.24797 8.14001 10.7015 8.46386 11.9699 9.10772C13.2383 9.75543 13.8745 10.9737 13.8745 12.7665V19.5906C13.8745 20.0648 13.8822 20.6354 13.9015 21.3101C13.9285 21.819 14.0056 22.166 14.1328 22.3472C14.26 22.5284 14.4528 22.6788 14.7072 22.7983V23.3728H10.4817C10.3622 23.0721 10.2812 22.7906 10.235 22.5284C10.1887 22.2624 10.154 21.9655 10.127 21.6301C9.58725 22.2123 8.96652 22.7096 8.26098 23.1183C7.4205 23.6002 6.46821 23.8431 5.40411 23.8431C4.05086 23.8431 2.92893 23.4576 2.0499 22.6904C1.16701 21.9231 0.723633 20.8321 0.723633 19.421C0.723633 17.5935 1.43303 16.2672 2.85568 15.4499C3.63448 15.0027 4.77954 14.6865 6.29086 14.4937L7.62484 14.3241ZM10.0036 16.14C9.75303 16.2942 9.50243 16.4215 9.24797 16.514C8.99351 16.6104 8.64652 16.699 8.20315 16.78L7.3164 16.9419C6.48749 17.0884 5.8899 17.2658 5.52749 17.474C4.91448 17.8287 4.6099 18.38 4.6099 19.1241C4.6099 19.7872 4.79496 20.2692 5.17279 20.5622C5.54677 20.859 6.0017 21.0055 6.53761 21.0055C7.3858 21.0055 8.16845 20.7588 8.88556 20.2692C9.60267 19.7795 9.97279 18.8812 9.99978 17.5819L10.0036 16.14ZM35.8889 8.55254C36.5251 8.80699 37.1034 9.25422 37.6239 9.89037C38.0403 10.4109 38.3256 11.047 38.4682 11.8027C38.5569 12.3039 38.6031 13.0364 38.6031 14.0002L38.5762 23.3766H34.5935V13.9039C34.5935 13.341 34.501 12.8745 34.3198 12.5121C33.9728 11.8219 33.3366 11.4749 32.4075 11.4749C31.3318 11.4749 30.5916 11.9222 30.1829 12.8128C29.9747 13.287 29.8706 13.8537 29.8706 14.5207V23.3766H25.9535V14.5169C25.9535 13.634 25.8648 12.994 25.6798 12.593C25.3521 11.8721 24.7121 11.5174 23.7559 11.5174C22.6456 11.5174 21.8976 11.8759 21.5159 12.593C21.3077 13.0017 21.2036 13.6108 21.2036 14.4205V23.3728H17.2595V8.52555H21.0378V10.6962C21.5198 9.92507 21.9747 9.37374 22.4027 9.04603C23.1583 8.46386 24.1376 8.17085 25.3366 8.17085C26.474 8.17085 27.3916 8.42145 28.0933 8.92266C28.6562 9.38531 29.0841 9.9829 29.3771 10.7116C29.886 9.84025 30.5183 9.19639 31.274 8.78772C32.0759 8.37904 32.9665 8.17471 33.9497 8.17471C34.6089 8.17085 35.2528 8.29808 35.8889 8.55254ZM51.9275 8.79928C52.9646 9.26579 53.8205 9.99832 54.4991 11.0007C55.1082 11.8836 55.5015 12.9092 55.6827 14.0774C55.7868 14.7598 55.8292 15.7468 55.8099 17.0306H44.9762C45.0378 18.5227 45.5545 19.5713 46.5338 20.1689C47.1275 20.5429 47.8407 20.728 48.6774 20.728C49.5641 20.728 50.2851 20.5005 50.8364 20.0455C51.1371 19.7988 51.407 19.4595 51.6383 19.02H55.6094C55.5053 19.9029 55.0234 20.7974 54.1675 21.7072C52.8335 23.153 50.9675 23.8778 48.5694 23.8778C46.5916 23.8778 44.8412 23.2687 43.3299 22.0465C41.8186 20.8282 41.0591 18.8427 41.0591 16.0899C41.0591 13.5145 41.7415 11.5366 43.1101 10.1602C44.475 8.78386 46.2485 8.0976 48.4306 8.0976C49.7222 8.10145 50.8904 8.33663 51.9275 8.79928ZM46.1097 12.1574C45.5583 12.7241 45.2152 13.4913 45.0725 14.459H51.7733C51.7039 13.4258 51.3569 12.6431 50.7362 12.1072C50.1154 11.5713 49.3482 11.3053 48.4306 11.3053C47.4321 11.3092 46.6571 11.5906 46.1097 12.1574ZM66.0923 8.15157C66.1424 8.15543 66.2542 8.16314 66.4277 8.17085V12.1574C66.181 12.1304 65.9651 12.1111 65.7723 12.1034C65.5795 12.0957 65.4253 12.088 65.3096 12.088C63.7444 12.088 62.6957 12.5969 62.1559 13.6186C61.8552 14.193 61.7048 15.0759 61.7048 16.2634V23.3728H57.7877V8.49856H61.5005V11.0933C62.1019 10.1024 62.6263 9.42386 63.0697 9.06145C63.7983 8.4523 64.7429 8.14772 65.9072 8.14772C65.9805 8.14386 66.0422 8.14386 66.0923 8.15157ZM69.0764 8.21326H73.0205V23.3728H69.0764V8.21326ZM85.1535 13.8345C85.0803 13.2793 84.8952 12.7781 84.5906 12.3347C84.155 11.7333 83.4725 11.4364 82.5511 11.4364C81.2364 11.4364 80.3381 12.088 79.8562 13.3872C79.6017 14.0774 79.4745 14.9949 79.4745 16.1362C79.4745 17.2234 79.6017 18.0986 79.8562 18.7617C80.3227 19.9993 81.1978 20.6161 82.4817 20.6161C83.3954 20.6161 84.0393 20.3733 84.4248 19.8798C84.8065 19.3901 85.0417 18.754 85.1227 17.9675H89.0938C89.0012 19.1511 88.5733 20.2692 87.8099 21.3255C86.5877 23.0258 84.7834 23.8778 82.3853 23.8778C79.9911 23.8778 78.2292 23.1684 77.0995 21.7496C75.9699 20.3308 75.407 18.488 75.407 16.2287C75.407 13.6764 76.0316 11.6909 77.2769 10.2721C78.5222 8.85326 80.2456 8.14386 82.4393 8.14386C84.3053 8.14386 85.8321 8.56025 87.0234 9.40073C88.2109 10.2374 88.9164 11.7178 89.1323 13.8345H85.1535ZM97.7453 14.3241C98.4701 14.2354 98.9868 14.1198 99.299 13.981C99.8581 13.7458 100.14 13.3757 100.14 12.8745C100.14 12.2653 99.9236 11.8451 99.4957 11.6137C99.0677 11.3824 98.4354 11.2668 97.6065 11.2668C96.6735 11.2668 96.0142 11.4942 95.6287 11.9492C95.3511 12.2846 95.166 12.7395 95.0735 13.314H91.3222C91.4031 12.0108 91.7694 10.9429 92.421 10.1063C93.4542 8.79543 95.2277 8.14001 97.7376 8.14001C99.3723 8.14001 100.826 8.46386 102.094 9.10772C103.367 9.75543 104.003 10.9737 104.003 12.7665V19.5906C104.003 20.0648 104.01 20.6354 104.03 21.3101C104.057 21.819 104.134 22.166 104.261 22.3472C104.388 22.5284 104.581 22.6788 104.835 22.7983V23.3728H100.602C100.483 23.0721 100.402 22.7906 100.355 22.5284C100.309 22.2624 100.274 21.9655 100.247 21.6301C99.7077 22.2123 99.087 22.7096 98.3815 23.1183C97.541 23.6002 96.5887 23.8431 95.5246 23.8431C94.1713 23.8431 93.0533 23.4576 92.1704 22.6904C91.2875 21.9231 90.8441 20.8321 90.8441 19.421C90.8441 17.5935 91.5535 16.2672 92.9762 15.4499C93.755 15.0027 94.9 14.6865 96.4152 14.4937L97.7453 14.3241ZM100.12 16.14C99.8735 16.2942 99.6191 16.4215 99.3646 16.514C99.1101 16.6104 98.7631 16.699 98.3198 16.78L97.433 16.9419C96.6041 17.0884 96.0065 17.2658 95.6441 17.474C95.0311 17.8287 94.7265 18.38 94.7265 19.1241C94.7265 19.7872 94.9116 20.2692 95.2894 20.5622C95.6634 20.859 96.1183 21.0055 96.6542 21.0055C97.5063 21.0055 98.2851 20.7588 99.0022 20.2692C99.7193 19.7795 100.089 18.8812 100.116 17.5819L100.12 16.14ZM119.444 9.35061C120.419 10.1564 120.905 11.4904 120.905 13.3564V23.3728H116.918V14.3241C116.918 13.5415 116.814 12.94 116.606 12.5236C116.228 11.7602 115.503 11.3786 114.439 11.3786C113.128 11.3786 112.23 11.9376 111.744 13.0557C111.49 13.6494 111.363 14.4012 111.363 15.3227V23.3766H107.473V8.52555H111.239V10.6962C111.737 9.93278 112.211 9.38145 112.654 9.04603C113.452 8.44458 114.462 8.14386 115.685 8.14386C117.219 8.14386 118.472 8.54483 119.444 9.35061ZM130.173 14.3241C130.898 14.2354 131.415 14.1198 131.727 13.981C132.286 13.7458 132.564 13.3757 132.564 12.8745C132.564 12.2653 132.348 11.8451 131.92 11.6137C131.492 11.3824 130.86 11.2668 130.031 11.2668C129.098 11.2668 128.438 11.4942 128.053 11.9492C127.775 12.2846 127.59 12.7395 127.501 13.314H123.75C123.831 12.0108 124.197 10.9429 124.845 10.1063C125.878 8.79543 127.652 8.14001 130.162 8.14001C131.796 8.14001 133.25 8.46386 134.522 9.10772C135.791 9.75543 136.427 10.9737 136.427 12.7665V19.5906C136.427 20.0648 136.434 20.6354 136.454 21.3101C136.481 21.819 136.558 22.166 136.685 22.3472C136.812 22.5284 137.005 22.6788 137.26 22.7983V23.3728H133.03C132.911 23.0721 132.83 22.7906 132.783 22.5284C132.737 22.2624 132.702 21.9655 132.675 21.6301C132.136 22.2123 131.515 22.7096 130.809 23.1183C129.969 23.6002 129.017 23.8431 127.953 23.8431C126.599 23.8431 125.481 23.4576 124.598 22.6904C123.715 21.9231 123.272 20.8321 123.272 19.421C123.272 17.5935 123.981 16.2672 125.404 15.4499C126.183 15.0027 127.328 14.6865 128.843 14.4937L130.173 14.3241ZM132.552 16.14C132.301 16.2942 132.051 16.4215 131.8 16.514C131.546 16.6104 131.199 16.699 130.755 16.78L129.869 16.9419C129.04 17.0884 128.442 17.2658 128.08 17.474C127.467 17.8287 127.162 18.38 127.162 19.1241C127.162 19.7872 127.351 20.2692 127.725 20.5622C128.099 20.859 128.554 21.0055 129.09 21.0055C129.938 21.0055 130.725 20.7588 131.438 20.2692C132.155 19.7795 132.525 18.8812 132.552 17.5819V16.14ZM142.865 18.6229C142.946 19.313 143.127 19.8065 143.401 20.0957C143.887 20.6123 144.781 20.8745 146.088 20.8745C146.856 20.8745 147.465 20.7627 147.92 20.5352C148.371 20.3077 148.598 19.9684 148.598 19.5096C148.598 19.074 148.417 18.7424 148.051 18.5149C147.688 18.2875 146.331 17.8981 143.983 17.3429C142.291 16.9227 141.103 16.4022 140.409 15.7737C139.719 15.153 139.372 14.2624 139.372 13.0981C139.372 11.7255 139.912 10.5458 140.992 9.55495C142.071 8.56796 143.594 8.07446 145.553 8.07446C147.411 8.07446 148.93 8.44459 150.098 9.18483C151.27 9.92507 151.941 11.2089 152.114 13.0248H148.224C148.17 12.5236 148.028 12.1304 147.8 11.8374C147.372 11.3092 146.64 11.0431 145.61 11.0431C144.762 11.0431 144.157 11.1742 143.798 11.4402C143.44 11.7024 143.259 12.0147 143.259 12.3694C143.259 12.8166 143.451 13.1405 143.833 13.3371C144.215 13.5453 145.568 13.9039 147.893 14.4166C149.443 14.779 150.603 15.3304 151.378 16.0668C152.141 16.8109 152.523 17.7439 152.523 18.8658C152.523 20.3386 151.972 21.5415 150.877 22.4745C149.778 23.4075 148.082 23.874 145.784 23.874C143.44 23.874 141.713 23.3805 140.594 22.3935C139.476 21.4065 138.921 20.1496 138.921 18.619H142.865V18.6229ZM0.750621 0.460007H152.269V4.28458H0.750621V0.460007ZM0.750621 26.5843H152.269V30.4089H0.750621V26.5843Z" fill="white"/>
</svg>
