<svg width="22" height="21" viewBox="0 0 22 21" fill="none" xmlns="http://www.w3.org/2000/svg">
<path id="Vector" d="M15.02 8.57C15.02 7.29853 14.6429 6.05562 13.9366 4.99843C13.2302 3.94124 12.2261 3.11726 11.0515 2.63069C9.87678 2.14412 8.58419 2.01681 7.33715 2.26486C6.09011 2.51291 4.94463 3.12518 4.04556 4.02425C3.1465 4.92332 2.53423 6.06879 2.28618 7.31583C2.03812 8.56287 2.16543 9.85546 2.652 11.0301C3.13857 12.2048 3.96255 13.2089 5.01974 13.9152C6.07693 14.6216 7.31985 14.9987 8.59132 14.9987C10.2947 14.9934 11.9268 14.3144 13.1312 13.1099C14.3357 11.9055 15.0147 10.2734 15.02 8.57ZM15.34 13.8187L20.7007 19.1793C20.7997 19.2777 20.8784 19.3947 20.9321 19.5235C20.9859 19.6523 21.0137 19.7905 21.0139 19.9301C21.0142 20.0697 20.9869 20.208 20.9336 20.337C20.8802 20.466 20.802 20.5833 20.7033 20.682C20.6046 20.7807 20.4873 20.8589 20.3583 20.9122C20.2293 20.9656 20.091 20.9929 19.9514 20.9926C19.8118 20.9924 19.6736 20.9646 19.5448 20.9108C19.416 20.8571 19.299 20.7784 19.2007 20.6793L13.84 15.3187C12.3554 16.5179 10.4997 17.1633 8.59132 17.144C6.89594 17.1445 5.23847 16.6423 3.82852 15.7008C2.41857 14.7594 1.31946 13.421 0.670177 11.8548C0.0208951 10.2887 -0.149395 8.56521 0.18084 6.90231C0.511075 5.2394 1.327 3.71176 2.52545 2.51257C3.72389 1.31338 5.25102 0.496503 6.91372 0.165233C8.57642 -0.166037 10.3 0.00318126 11.8665 0.651488C13.4331 1.2998 14.7722 2.39807 15.7145 3.80744C16.6569 5.2168 17.1601 6.87396 17.1607 8.56934C17.1825 10.4774 16.5387 12.3333 15.34 13.818V13.8187Z" fill="#F80032"/>
</svg>
