<svg width="33" height="37" viewBox="0 0 33 37" fill="none" xmlns="http://www.w3.org/2000/svg">
<g id="SVG" clip-path="url(#clip0_1_2115)">
<path id="Vector" d="M4.46365 5.33429H27.8931V31.6657H4.46365V5.33429Z" fill="white" fill-opacity="0.01"/>
<path id="Vector_2" fill-rule="evenodd" clip-rule="evenodd" d="M16.1784 9.72217C16.691 9.72176 17.1987 9.83497 17.6725 10.0553C18.1462 10.2757 18.5767 10.5989 18.9394 11.0064C19.3021 11.414 19.5899 11.8979 19.7863 12.4307C19.9828 12.9634 20.084 13.5344 20.0842 14.1111C20.084 14.6878 19.9828 15.2588 19.7863 15.7915C19.5899 16.3242 19.3021 16.8082 18.9394 17.2157C18.5767 17.6233 18.1462 17.9465 17.6725 18.1668C17.1987 18.3872 16.691 18.5004 16.1784 18.5C15.1434 18.5003 14.1507 18.0381 13.4185 17.215C12.6864 16.392 12.2749 15.2755 12.2744 14.1111C12.2749 12.9467 12.6864 11.8302 13.4185 11.0072C14.1507 10.1841 15.1434 9.7219 16.1784 9.72217ZM16.1784 11.3679C15.858 11.3676 15.5407 11.4384 15.2446 11.5761C14.9484 11.7138 14.6794 11.9158 14.4527 12.1706C14.226 12.4253 14.0461 12.7278 13.9234 13.0608C13.8006 13.3937 13.7374 13.7506 13.7372 14.1111C13.7374 14.4715 13.8006 14.8285 13.9234 15.1614C14.0461 15.4944 14.226 15.7969 14.4527 16.0516C14.6794 16.3064 14.9484 16.5084 15.2446 16.6461C15.5407 16.7838 15.858 16.8546 16.1784 16.8543C16.4988 16.8546 16.8161 16.7838 17.1122 16.6461C17.4083 16.5084 17.6774 16.3064 17.9041 16.0516C18.1308 15.7969 18.3107 15.4944 18.4334 15.1614C18.5562 14.8285 18.6194 14.4715 18.6195 14.1111C18.6194 13.7506 18.5562 13.3937 18.4334 13.0608C18.3107 12.7278 18.1308 12.4253 17.9041 12.1706C17.6774 11.9158 17.4083 11.7138 17.1122 11.5761C16.8161 11.4384 16.4988 11.3676 16.1784 11.3679ZM16.1784 20.1457C17.5297 20.1457 19.4058 20.6394 20.9098 21.4211C22.8024 22.4034 23.9891 23.7313 23.9891 25.3565C23.9891 26.4169 23.2239 27.2768 22.2803 27.2768H10.0774C9.853 27.2771 9.63079 27.2276 9.42343 27.1312C9.21607 27.0349 9.02762 26.8935 8.86884 26.7151C8.71007 26.5368 8.58409 26.325 8.49809 26.0919C8.41209 25.8588 8.36777 25.6089 8.36765 25.3565C8.36765 23.7313 9.55622 22.4045 11.4479 21.4211C12.9519 20.6394 14.8271 20.1457 16.1784 20.1457ZM16.1784 21.7914C15.0346 21.7914 13.3651 22.2389 12.0623 22.9157C10.5354 23.7077 9.83325 24.5758 9.83325 25.3565C9.83325 25.5087 9.94296 25.6311 10.0774 25.6311H22.2794C22.4147 25.6311 22.5235 25.5077 22.5235 25.3565C22.5235 24.5747 21.8195 23.7077 20.2945 22.9157C18.9916 22.2389 17.3231 21.7914 16.1784 21.7914Z" fill="white"/>
<path id="Vector_3" d="M16.1784 34.9571C24.2661 34.9571 30.8225 27.589 30.8225 18.5C30.8225 9.41098 24.2661 2.04286 16.1784 2.04286C8.09067 2.04286 1.53427 9.41098 1.53427 18.5C1.53427 27.589 8.09067 34.9571 16.1784 34.9571Z" stroke="white" stroke-width="1.82857"/>
</g>
<defs>
<clipPath id="clip0_1_2115">
<rect width="32" height="36" fill="white" transform="translate(0.619995 0.5)"/>
</clipPath>
</defs>
</svg>
